C:\My Captures\DataSMARTClinic\0056~004 ID\0056~aa~STRATO3\Standing_ID_04_STRATO.mot
version=1
nRows=97
nColumns=10
inDegrees=yes

BTS OpenSim export

endheader
time	[P0]_force_vx	[P0]_force_vy	[P0]_force_vz	[P0]_force_px	[P0]_force_py	[P0]_force_pz	[P0]_torque_x	[P0]_torque_y	[P0]_torque_z
7.764000	2.91400814	569.23937988	15.01183128	0.85732222	0.00182873	0.19222440	0.00516323	-0.93774724	-0.00036088
7.768000	2.38025856	568.45043945	15.01079750	0.85712200	0.00182767	0.19212796	0.00570906	-1.03688097	-0.00039903
7.772000	2.91906548	568.45361328	14.47356606	0.85714328	0.00182779	0.19210668	0.00583634	-1.05999827	-0.00040793
7.776000	2.91615248	568.71716309	15.54959393	0.85728467	0.00182858	0.19208068	0.00449862	-0.81704134	-0.00031443
7.780000	2.92047858	567.93145752	15.54929161	0.85734874	0.00182891	0.19213556	0.00605896	-1.10043061	-0.00042349
7.784000	2.38094783	568.19244385	15.54866219	0.85746884	0.00182960	0.19206686	0.00657945	-1.19496274	-0.00045987
7.788000	2.91688108	568.71759033	15.01163101	0.85752761	0.00182987	0.19221076	0.00514605	-0.93462664	-0.00035968
7.792000	2.38240123	567.92846680	15.54856014	0.85732746	0.00182880	0.19213553	0.00502955	-0.91346812	-0.00035154
7.796000	2.37877679	568.45404053	16.08672523	0.85736573	0.00182905	0.19201982	0.00592361	-1.07584739	-0.00041403
7.800000	2.37950516	568.45446777	15.54876328	0.85760885	0.00183034	0.19214997	0.00500623	-0.90923363	-0.00034991
7.804000	2.38093686	568.19445801	15.54866314	0.85771155	0.00183094	0.19206782	0.00655900	-1.19124782	-0.00045844
7.808000	2.38021302	568.45867920	15.01080132	0.85785270	0.00183175	0.19197793	0.00564499	-1.02524567	-0.00039456
7.812000	2.38166666	568.19470215	15.01069927	0.85771155	0.00183095	0.19204652	0.00565857	-1.02771151	-0.00039551
7.816000	1.84588706	567.66381836	15.54772854	0.85740924	0.00182922	0.19220395	0.00614950	-1.11687517	-0.00042982
7.820000	2.37804103	568.72039795	15.54886532	0.85799247	0.00183248	0.19208232	0.00497180	-0.90298021	-0.00034750
7.824000	2.38382053	567.67071533	15.54846096	0.85767472	0.00183074	0.19205305	0.00656166	-1.19173050	-0.00045863
7.828000	2.38236833	567.93444824	15.54856300	0.85781431	0.00183153	0.19198561	0.00498391	-0.90517884	-0.00034835
7.832000	2.38235593	567.93670654	15.54856396	0.85805881	0.00183288	0.19198535	0.00652718	-1.18546927	-0.00045622
7.836000	2.38164806	567.93255615	16.08652496	0.85781473	0.00183147	0.19215754	0.00588856	-1.06948197	-0.00041158
7.840000	2.38237786	567.93273926	15.54856205	0.85781479	0.00183148	0.19213623	0.00498844	-0.90600139	-0.00034867
7.844000	2.38380933	567.67272949	15.54846191	0.85791761	0.00183208	0.19205400	0.00497726	-0.90397161	-0.00034789
7.848000	2.38453913	567.67297363	15.01049900	0.85791767	0.00183209	0.19203268	0.00564137	-1.02458680	-0.00039430
7.852000	1.84656560	567.40783691	16.08559418	0.85799968	0.00183249	0.19214377	0.00640455	-1.16319656	-0.00044765
7.856000	2.38092303	568.19696045	15.54866409	0.85819912	0.00183356	0.19221908	0.00495851	-0.90056574	-0.00034657
7.860000	2.38454890	567.67120361	15.01049805	0.85791814	0.00183203	0.19218338	0.00564590	-1.02540994	-0.00039462
7.864000	2.38453770	567.67321777	15.01049900	0.85816103	0.00183337	0.19218434	0.00562614	-1.02182209	-0.00039324
7.868000	2.38237643	567.93298340	15.54856205	0.85805804	0.00183276	0.19228780	0.00497250	-0.90310705	-0.00034755
7.872000	2.38742137	567.14947510	15.01029682	0.85812461	0.00183317	0.19216965	0.00562866	-1.02227998	-0.00039342
7.876000	2.38597918	567.41143799	15.01039791	0.85826457	0.00183391	0.19225286	0.00561979	-1.02066803	-0.00039280
7.880000	1.84729409	567.40826416	15.54763031	0.85824323	0.00183379	0.19227417	0.00451711	-0.82039899	-0.00031572
7.884000	2.38669157	567.14929199	15.54826069	0.85812461	0.00183316	0.19219100	0.00496395	-0.90155345	-0.00034695
7.888000	1.84946632	567.14648438	15.00956631	0.85810328	0.00183305	0.19216962	0.00616290	-1.11930728	-0.00043076
7.892000	1.84872568	567.14825439	15.54753017	0.85834634	0.00183438	0.19219193	0.00547768	-0.99485838	-0.00038286
7.896000	2.38452578	567.67541504	15.01049995	0.85840571	0.00183471	0.19218409	0.00560621	-1.01820195	-0.00039185
7.900000	2.38669038	567.14953613	15.54826069	0.85836822	0.00183445	0.19234279	0.00494799	-0.89865506	-0.00034584
7.904000	2.38596678	567.41369629	15.01039886	0.85850936	0.00183526	0.19225261	0.00559985	-1.01704609	-0.00039140
7.908000	2.38452578	567.67541504	15.01049995	0.85840571	0.00183471	0.19218409	0.00560621	-1.01820195	-0.00039185
7.912000	2.38885164	566.88970947	15.01019764	0.85847151	0.00183506	0.19223921	0.00560252	-1.01753223	-0.00039159
7.916000	2.38522744	567.41516113	15.54836273	0.85850883	0.00183531	0.19212319	0.00649338	-1.17932987	-0.00045385
7.920000	1.84798348	567.15032959	16.08549500	0.85859120	0.00183572	0.19221303	0.00538324	-0.97770536	-0.00037626
7.924000	2.38812184	566.88952637	15.54816055	0.85847145	0.00183505	0.19226055	0.00650070	-1.18065965	-0.00045437
7.928000	1.84944308	567.15069580	15.00956821	0.85859132	0.00183574	0.19217034	0.00612317	-1.11209249	-0.00042798
7.932000	1.31365418	566.62158203	15.54659843	0.85828876	0.00183407	0.19217722	0.00504309	-0.91592717	-0.00035249
7.936000	1.31004548	567.40972900	15.00893784	0.85870969	0.00183636	0.19225350	0.00567652	-1.03097212	-0.00039676
7.940000	1.31147683	567.14978027	15.00883770	0.85881305	0.00183696	0.19217128	0.00566610	-1.02907872	-0.00039603
7.944000	1.31507468	566.36358643	15.54649830	0.85863554	0.00183601	0.19209580	0.00501183	-0.91025066	-0.00035030
7.948000	1.31436050	566.62603760	15.00863647	0.85877717	0.00183677	0.19215658	0.00566866	-1.02954364	-0.00039621
7.952000	2.38882995	566.89367676	15.01019859	0.85871601	0.00183646	0.19208805	0.00557803	-1.01308286	-0.00038988
7.956000	1.31795835	565.83984375	15.54629707	0.85859942	0.00183582	0.19208100	0.00657844	-1.19477844	-0.00045980
7.960000	1.85374725	566.36901855	15.00926685	0.85890210	0.00183749	0.19207421	0.00512370	-0.93056732	-0.00035812
7.964000	2.39024282	566.37152100	16.08592415	0.85892344	0.00183759	0.19211698	0.00579046	-1.05166554	-0.00040472
7.968000	1.85374725	566.36901855	15.00926685	0.85890210	0.00183749	0.19207421	0.00512370	-0.93056732	-0.00035812
7.972000	1.85734344	565.58306885	15.54692841	0.85896873	0.00183783	0.19215070	0.00445249	-0.80866373	-0.00031121
7.976000	2.39386749	565.84600830	15.54775906	0.85888636	0.00183734	0.19223320	0.00490092	-0.89010739	-0.00034255
7.980000	1.31866467	565.84429932	15.00833511	0.85908860	0.00183852	0.19206032	0.00564095	-1.02451134	-0.00039427
7.984000	2.39243221	566.37219238	14.47203445	0.85892355	0.00183762	0.19205286	0.00466386	-0.84705275	-0.00032598
7.988000	1.85374725	566.36901855	15.00926685	0.85890210	0.00183749	0.19207421	0.00609522	-1.10701680	-0.00042603
7.992000	1.31723309	566.10430908	15.00843525	0.85898483	0.00183792	0.19214280	0.00565141	-1.02641129	-0.00039501
7.996000	1.85374725	566.36901855	15.00926685	0.85890210	0.00183749	0.19207421	0.00609522	-1.10701680	-0.00042603
8.000000	2.39171362	566.36993408	15.00999737	0.85892224	0.00183754	0.19222648	0.00556543	-1.01079500	-0.00038900
8.004000	2.38811707	567.15588379	14.47233677	0.85885572	0.00183721	0.19214998	0.00467213	-0.84855390	-0.00032656
8.008000	1.85231566	566.62902832	15.00936699	0.85879856	0.00183689	0.19215661	0.00610591	-1.10895801	-0.00042677
8.012000	2.38739705	567.15393066	15.01029873	0.85885620	0.00183714	0.19232215	0.00557371	-1.01229823	-0.00038957
8.016000	1.85014355	566.89074707	15.54743099	0.85893834	0.00183762	0.19226123	0.00542962	-0.98612899	-0.00037950
8.020000	1.84582829	567.67449951	15.54773331	0.85887063	0.00183721	0.19235799	0.00446645	-0.81119829	-0.00031218
8.024000	1.31075811	567.14752197	15.54680061	0.85856992	0.00183562	0.19219166	0.00501971	-0.91168106	-0.00035085
8.028000	1.31147683	567.14978027	15.00883770	0.85881305	0.00183696	0.19217128	0.00566610	-1.02907872	-0.00039603
8.032000	2.38593388	567.41967773	15.01040077	0.85899663	0.00183800	0.19210257	0.00555561	-1.00901163	-0.00038831
8.036000	2.38739705	567.15393066	15.01029873	0.85885620	0.00183714	0.19232215	0.00557371	-1.01229823	-0.00038957
8.040000	1.84654725	567.67663574	15.00977039	0.85887194	0.00183728	0.19218476	0.00512918	-0.93156397	-0.00035850
8.044000	1.31219912	566.88586426	15.54669952	0.85867375	0.00183616	0.19226025	0.00657654	-1.19443405	-0.00045967
8.048000	2.38741565	567.41607666	13.93447304	0.85875237	0.00183661	0.19221090	0.00534932	-0.97154504	-0.00037389
8.052000	2.38737512	567.15789795	15.01030064	0.85910058	0.00183855	0.19217108	0.00554922	-1.00785100	-0.00038786
8.056000	1.31291807	566.88800049	15.00873756	0.85891700	0.00183751	0.19223985	0.00565931	-1.02784538	-0.00039556
8.060000	2.38739705	567.15393066	15.01029873	0.85885620	0.00183714	0.19232215	0.00557371	-1.01229823	-0.00038957
8.064000	2.38882852	566.89392090	15.01019859	0.85895967	0.00183774	0.19223991	0.00556278	-1.01031470	-0.00038881
8.068000	2.39028192	566.62994385	15.01009750	0.85881865	0.00183694	0.19230881	0.00557636	-1.01278043	-0.00038976
8.072000	2.39099002	566.63415527	14.47213554	0.85906327	0.00183835	0.19213623	0.00621935	-1.12956035	-0.00043470
8.076000	1.85445845	566.10705566	15.54712963	0.85900623	0.00183803	0.19216421	0.00542123	-0.98460567	-0.00037892
8.080000	1.31508410	566.36187744	15.54649830	0.85863602	0.00183596	0.19224684	0.00657940	-1.19495332	-0.00045987
8.084000	1.85303795	566.36505127	15.54722881	0.85890126	0.00183736	0.19239886	0.00602890	-1.09497166	-0.00042139
8.088000	1.85303926	566.36480713	15.54722881	0.85865736	0.00183608	0.19224687	0.00545294	-0.99036419	-0.00038113
8.092000	1.85232675	566.62701416	15.00936604	0.85879731	0.00183682	0.19230878	0.00513865	-0.93328416	-0.00035917
8.096000	1.85521042	566.10327148	15.00916481	0.85876143	0.00183663	0.19229420	0.00514118	-0.93374246	-0.00035934
8.100000	2.39026952	566.63220215	15.01009846	0.85906374	0.00183829	0.19230856	0.00555639	-1.00915360	-0.00038836
8.104000	1.31581259	566.36230469	15.00853443	0.85887992	0.00183725	0.19237746	0.00566568	-1.02900338	-0.00039600
8.108000	1.31724274	566.10253906	15.00843525	0.85898536	0.00183786	0.19229391	0.00565506	-1.02707410	-0.00039526
8.112000	1.31725526	566.10028076	15.00843430	0.85874003	0.00183651	0.19229417	0.00567504	-1.03070366	-0.00039666
8.116000	1.85521042	566.10327148	15.00916481	0.85876143	0.00183663	0.19229420	0.00514118	-0.93374246	-0.00035934
8.120000	1.31509387	566.36010742	15.54649734	0.85863650	0.00183590	0.19239786	0.00501912	-0.91157490	-0.00035081
8.124000	2.39173412	566.36621094	15.00999546	0.85867929	0.00183615	0.19237655	0.00558977	-1.01521575	-0.00039070
8.128000	1.31582367	566.36029053	15.00853443	0.85863650	0.00183591	0.19237649	0.00568548	-1.03259981	-0.00039739
8.132000	1.85233653	566.62524414	15.00936604	0.85879779	0.00183677	0.19245975	0.00611428	-1.11047697	-0.00042736
8.136000	1.84946358	567.14697266	15.00956631	0.85859048	0.00183562	0.19247320	0.00613153	-1.11361003	-0.00042856
8.140000	1.85451972	566.36145020	14.47130108	0.85865664	0.00183597	0.19250740	0.00523010	-0.94989210	-0.00036556
8.144000	1.31150842	567.14404297	15.00883579	0.85856915	0.00183550	0.19247317	0.00569333	-1.03402483	-0.00039794
8.148000	2.38742852	567.14819336	15.01029682	0.85861230	0.00183568	0.19262406	0.00560273	-1.01756978	-0.00039160
